<?xml version="1.0" encoding="UTF-8" standalone="no"?>
<svg
   xmlns:dc="http://purl.org/dc/elements/1.1/"
   xmlns:cc="http://creativecommons.org/ns#"
   xmlns:rdf="http://www.w3.org/1999/02/22-rdf-syntax-ns#"
   xmlns:svg="http://www.w3.org/2000/svg"
   xmlns="http://www.w3.org/2000/svg"
   xmlns:sodipodi="http://sodipodi.sourceforge.net/DTD/sodipodi-0.dtd"
   xmlns:inkscape="http://www.inkscape.org/namespaces/inkscape"
   width="24px"
   height="24px"
   viewBox="0 0 24 24"
   version="1.1"
   id="svg10"
   sodipodi:docname="new-window-gold.svg"
   inkscape:version="0.92.1 r15371">
  <metadata
     id="metadata16">
    <rdf:RDF>
      <cc:Work
         rdf:about="">
        <dc:format>image/svg+xml</dc:format>
        <dc:type
           rdf:resource="http://purl.org/dc/dcmitype/StillImage" />
        <dc:title>new-window</dc:title>
      </cc:Work>
    </rdf:RDF>
  </metadata>
  <defs
     id="defs14" />
  <sodipodi:namedview
     pagecolor="#ffffff"
     bordercolor="#666666"
     borderopacity="1"
     objecttolerance="10"
     gridtolerance="10"
     guidetolerance="10"
     inkscape:pageopacity="0"
     inkscape:pageshadow="2"
     inkscape:window-width="1373"
     inkscape:window-height="745"
     id="namedview12"
     showgrid="false"
     inkscape:zoom="9.8333333"
     inkscape:cx="12"
     inkscape:cy="12"
     inkscape:window-x="1006"
     inkscape:window-y="138"
     inkscape:window-maximized="0"
     inkscape:current-layer="svg10" />
  <!-- Generator: Sketch 59 (86127) - https://sketch.com -->
  <title
     id="title2">new-window</title>
  <desc
     id="desc4">Created with Sketch.</desc>
  <g
     id="new-window"
     stroke="none"
     stroke-width="1"
     fill="none"
     fill-rule="evenodd"
     style="fill:#fcc015;fill-opacity:1">
    <path
       d="M21,1 C22.1045695,1 23,1.8954305 23,3 L23,14 C23,15.1045695 22.1045695,16 21,16 L9,16 C7.8954305,16 7,15.1045695 7,14 L7,3 C7,1.8954305 7.8954305,1 9,1 L21,1 Z M9,3 L9,14 L21,14 L21,3 L9,3 Z"
       id="Rectangle"
       fill="#000000"
       fill-rule="nonzero"
       style="fill:#fcc015;fill-opacity:1" />
    <path
       d="M3,10 L3,21 L15,21 L15,18 L17,18 L17,21 C17,22.1045695 16.1045695,23 15,23 L3,23 C1.8954305,23 1,22.1045695 1,21 L1,10 C1,8.8954305 1.8954305,8 3,8 L5,8 L5,10 L3,10 Z"
       id="path7"
       fill="#000000"
       fill-rule="nonzero"
       style="fill:#fcc015;fill-opacity:1" />
  </g>
</svg>
